<svg xmlns="http://www.w3.org/2000/svg" width="438.53" height="438.537" viewBox="0 0 438.53 438.537"><g transform="translate(-0.003)"><path d="M414.41,24.123Q390.295,0,356.315,0H82.228q-33.972,0-58.1,24.123T0,82.225V356.309q0,33.971,24.123,58.1t58.1,24.126H356.312q33.972,0,58.1-24.126t24.126-58.1V82.225Q438.532,48.252,414.41,24.123ZM359.159,332.874q-6,13.131-26.977,22.846t-37.265,9.712a70.661,70.661,0,0,1-9.708-.711q-5.139-.719-8.7-1.428a93.1,93.1,0,0,1-9.421-2.57q-5.857-1.851-8.422-2.854t-9.421-3.566q-6.854-2.577-8.562-3.138-46.822-17.141-91.507-61.814-44.679-44.689-61.812-91.5-.567-1.715-3.14-8.565t-3.571-9.419q-.993-2.569-2.853-8.42a93.888,93.888,0,0,1-2.568-9.423q-.717-3.564-1.427-8.7a70.762,70.762,0,0,1-.713-9.71q0-16.275,9.71-37.259T105.64,79.37q15.132-6.284,28.837-6.283a13.271,13.271,0,0,1,4.565.572q1.43.578,4.714,5.14a115.933,115.933,0,0,1,7.137,11.563q3.855,7,7.566,13.562t7.139,12.991q3.426,6.418,4.281,8.133.856,1.436,3.711,5.429a43.78,43.78,0,0,1,4.283,7.135,14.521,14.521,0,0,1,1.427,6q0,4.288-5.854,10.42a97.4,97.4,0,0,1-12.85,11.281A111.438,111.438,0,0,0,147.749,176.3q-5.849,5.849-5.852,9.562a13.937,13.937,0,0,0,1,4.71A44.167,44.167,0,0,0,144.753,195q.856,1.712,2.712,4.856t2.426,4A218.087,218.087,0,0,0,186,252.538a217.9,217.9,0,0,0,48.682,36.117q.851.576,4,2.43c2.091,1.232,3.713,2.136,4.853,2.707a43.431,43.431,0,0,0,4.425,1.852,14.042,14.042,0,0,0,4.719,1q4.554,0,12.56-9.418t16.276-18.7q8.274-9.271,13.418-9.274a14.543,14.543,0,0,1,6,1.424,43.892,43.892,0,0,1,7.132,4.284c2.669,1.91,4.476,3.142,5.428,3.721l15.125,8.271q15.133,8,25.27,14.134t11,8.419a13.379,13.379,0,0,1,.564,4.572Q365.446,317.763,359.159,332.874Z"/></g></svg>